<svg width="85" height="85" viewBox="0 0 85 85" fill="none" xmlns="http://www.w3.org/2000/svg">
<path d="M37.8782 7.50001C39.8027 4.16667 44.614 4.16667 46.5385 7.5L74.4317 55.8125C76.3562 59.1458 73.9506 63.3125 70.1016 63.3125H14.3151C10.4661 63.3125 8.06047 59.1458 9.98497 55.8125L37.8782 7.50001Z" fill="#14FF00"/>
<path d="M37.8782 7.50001C39.8027 4.16667 44.614 4.16667 46.5385 7.5L74.4317 55.8125C76.3562 59.1458 73.9506 63.3125 70.1016 63.3125H14.3151C10.4661 63.3125 8.06047 59.1458 9.98497 55.8125L37.8782 7.50001Z" fill="#14FF00"/>
<path d="M41.3423 21.9007C41.7272 21.234 42.6895 21.234 43.0744 21.9007L60.2283 51.6122C60.6132 52.2788 60.1321 53.1122 59.3623 53.1122H25.0544C24.2846 53.1122 23.8035 52.2788 24.1884 51.6122L41.3423 21.9007Z" fill="#454545"/>
</svg>
